<svg width="48" height="48" viewBox="0 0 48 48" fill="none" xmlns="http://www.w3.org/2000/svg">
<path fill-rule="evenodd" clip-rule="evenodd" d="M32 0H16V2H23V10.0246C12.4189 10.5456 4 19.2896 4 30V32V34H42H43.9995H44V32V30C44 19.2896 35.5811 10.5456 25 10.0246V2H32V0ZM42 30C42 20.0589 33.9411 12 24 12C14.0589 12 6 20.0589 6 30V32H41.9995V30H42ZM48 46V48H0V46H1V45.7025L5.42438 39H42.5265L46.9917 45.7001V46H48ZM44.7881 46L41.4559 41H6.50062L3.20008 46H44.7881Z" fill="black"/>
<mask id="mask0_1230_689" style="mask-type:alpha" maskUnits="userSpaceOnUse" x="0" y="0" width="48" height="48">
<path fill-rule="evenodd" clip-rule="evenodd" d="M32 0H16V2H23V10.0246C12.4189 10.5456 4 19.2896 4 30V32V34H42H43.9995H44V32V30C44 19.2896 35.5811 10.5456 25 10.0246V2H32V0ZM42 30C42 20.0589 33.9411 12 24 12C14.0589 12 6 20.0589 6 30V32H41.9995V30H42ZM48 46V48H0V46H1V45.7025L5.42438 39H42.5265L46.9917 45.7001V46H48ZM44.7881 46L41.4559 41H6.50062L3.20008 46H44.7881Z" fill="white"/>
</mask>
<g mask="url(#mask0_1230_689)">
<rect width="48" height="48" fill="black"/>
</g>
</svg>
