<svg width="512" height="512" viewBox="0 0 512 512" fill="none" xmlns="http://www.w3.org/2000/svg">
<path d="M453.504 3.20297e-07H26.4727C11.85 0.00900032 -0.00224968 11.868 3.20297e-07 26.496V453.527C0.00900032 468.15 11.868 480.002 26.496 480H256.406V294.375H194.062V221.719H256.406V168.249C256.406 106.242 294.261 72.492 349.573 72.492C376.066 72.492 398.833 74.4667 405.469 75.3487V140.156H367.327C337.234 140.156 331.406 154.456 331.406 175.444V221.719H403.36L393.985 294.375H331.406V480H453.504C468.135 480.003 479.997 468.146 480 453.515V26.4735C479.994 11.85 468.132 -0.00224968 453.504 3.20297e-07Z" fill="black"/>
</svg>
