<svg width="512" height="512" viewBox="0 0 512 512" fill="none" xmlns="http://www.w3.org/2000/svg">
<path d="M373.405 0H138.594C62.1719 0 0 62.1719 0 138.594V373.409C0 449.827 62.1719 511.999 138.594 511.999H373.409C449.827 511.999 511.999 449.827 511.999 373.409V138.594C511.999 62.1719 449.827 0 373.405 0ZM481.983 373.409C481.983 433.276 433.276 481.983 373.405 481.983H138.594C78.7228 481.983 30.0159 433.276 30.0159 373.409V138.594C30.0159 78.7228 78.7228 30.0159 138.594 30.0159H373.409C433.276 30.0159 481.983 78.7228 481.983 138.594V373.409Z" fill="black"/>
<path d="M256 116.004C178.805 116.004 116.004 178.804 116.004 256C116.004 333.196 178.804 395.996 256 395.996C333.196 395.996 395.996 333.196 395.996 256C395.996 178.804 333.196 116.004 256 116.004ZM256 365.98C195.36 365.98 146.02 316.645 146.02 256C146.02 195.36 195.36 146.02 256 146.02C316.645 146.02 365.98 195.36 365.98 256C365.98 316.645 316.645 365.98 256 365.98ZM399.344 66.2852C376.531 66.2852 357.977 84.8442 357.977 107.652C357.977 130.465 376.531 149.023 399.344 149.023C422.157 149.023 440.714 130.465 440.714 107.653C440.714 84.8412 422.156 66.2852 399.344 66.2852ZM399.344 119.004C393.086 119.004 387.992 113.91 387.992 107.652C387.992 101.391 393.086 96.3012 399.344 96.3012C405.605 96.3012 410.699 101.391 410.699 107.652C410.699 113.91 405.605 119.004 399.344 119.004Z" fill="black"/>
</svg>
