<svg width="48" height="48" viewBox="0 0 48 48" fill="none" xmlns="http://www.w3.org/2000/svg">
<path fill-rule="evenodd" clip-rule="evenodd" d="M6 18C6 28.0078 14 40 24 47.9985C34 40 42 27.9411 42 18C42 8.05887 33.9411 0 24 0C14.0589 0 6 8.05887 6 18ZM24 2C32.8366 2 40 9.16344 40 18C40 26.4333 33.4423 37.3927 23.9998 45.4074C14.5314 37.3763 8 26.4753 8 18C8 9.16344 15.1634 2 24 2ZM24 26C19.5817 26 16 22.4183 16 18C16 13.5817 19.5817 10 24 10C28.4183 10 32 13.5817 32 18C32 22.4183 28.4183 26 24 26ZM30 18C30 21.3137 27.3137 24 24 24C20.6863 24 18 21.3137 18 18C18 14.6863 20.6863 12 24 12C27.3137 12 30 14.6863 30 18Z" fill="black"/>
<mask id="mask0_1230_485" style="mask-type:alpha" maskUnits="userSpaceOnUse" x="6" y="0" width="36" height="48">
<path fill-rule="evenodd" clip-rule="evenodd" d="M6 18C6 28.0078 14 40 24 47.9985C34 40 42 27.9411 42 18C42 8.05887 33.9411 0 24 0C14.0589 0 6 8.05887 6 18ZM24 2C32.8366 2 40 9.16344 40 18C40 26.4333 33.4423 37.3927 23.9998 45.4074C14.5314 37.3763 8 26.4753 8 18C8 9.16344 15.1634 2 24 2ZM24 26C19.5817 26 16 22.4183 16 18C16 13.5817 19.5817 10 24 10C28.4183 10 32 13.5817 32 18C32 22.4183 28.4183 26 24 26ZM30 18C30 21.3137 27.3137 24 24 24C20.6863 24 18 21.3137 18 18C18 14.6863 20.6863 12 24 12C27.3137 12 30 14.6863 30 18Z" fill="white"/>
</mask>
<g mask="url(#mask0_1230_485)">
<rect width="48" height="48" fill="black"/>
</g>
</svg>
