<svg width="512" height="512" viewBox="0 0 512 512" fill="none" xmlns="http://www.w3.org/2000/svg">
<g clip-path="url(#clip0_18_13)">
<path d="M384.498 34.3429C345.278 11.452 302.442 0.00878906 256 0.00878906C209.552 0.00878906 166.717 11.452 127.497 34.3429C88.2767 57.2347 57.2206 88.2907 34.3341 127.506C11.4432 166.731 0 209.565 0 256.009C0 307.786 14.1051 354.786 42.3313 397.004C70.5522 439.233 107.549 470.451 153.332 490.669C152.439 466.891 153.884 447.229 157.665 431.674L190.664 292.34C185.107 281.454 182.332 267.9 182.332 251.674C182.332 232.786 187.109 217.004 196.664 204.344C206.213 191.672 217.884 185.336 231.664 185.336C242.771 185.336 251.33 188.999 257.331 196.341C263.331 203.672 266.335 212.897 266.335 224.005C266.335 230.898 265.052 239.289 262.503 249.174C259.944 259.064 256.611 270.506 252.504 283.508C248.393 296.505 245.45 306.892 243.669 314.673C240.553 328.226 243.112 339.836 251.336 349.505C259.553 359.173 270.445 364.003 284.003 364.003C307.783 364.003 327.282 350.786 342.507 324.34C357.728 297.895 365.338 265.784 365.338 228.002C365.338 198.894 355.952 175.223 337.173 157.001C318.394 138.785 292.222 129.668 258.673 129.668C221.113 129.668 190.723 141.728 167.507 165.831C144.285 189.946 132.674 218.783 132.674 252.328C132.674 272.329 138.344 289.112 149.674 302.667C153.45 307.113 154.673 311.886 153.341 316.993C152.892 318.33 152.006 321.662 150.674 326.991C149.344 332.321 148.451 335.773 148.007 337.324C146.227 344.44 142.007 346.664 135.336 343.991C118.223 336.881 105.221 324.551 96.3375 306.993C87.4483 289.441 83.0059 269.11 83.0059 245.997C83.0059 231.108 85.392 216.217 90.1694 201.328C94.9469 186.439 102.386 172.053 112.504 158.158C122.611 144.28 134.725 131.993 148.841 121.329C162.951 110.659 180.119 102.111 200.342 95.6558C220.562 89.2172 242.344 85.9931 265.678 85.9931C297.232 85.9931 325.567 92.9939 350.676 106.99C375.785 120.993 394.955 139.107 408.178 161.327C421.396 183.548 428.013 207.321 428.013 232.663C428.013 265.997 422.23 295.998 410.679 322.667C399.123 349.335 382.788 370.278 361.676 385.498C340.558 400.717 316.558 408.33 289.674 408.33C276.116 408.33 263.449 405.165 251.672 398.828C239.887 392.493 231.778 384.995 227.335 376.326C217.337 415.655 211.337 439.11 209.335 446.657C205.109 462.44 196.442 480.656 183.332 501.324C207.111 508.435 231.333 511.988 256 511.988C302.443 511.988 345.278 500.545 384.498 477.66C423.717 454.767 454.773 423.712 477.666 384.486C500.551 345.265 512.001 302.436 512.001 255.987C512.001 209.538 500.551 166.71 477.666 127.485C454.778 88.2907 423.717 57.2347 384.498 34.3429Z" fill="black"/>
</g>
<defs>
<clipPath id="clip0_18_13">
<rect width="512" height="512" fill="white"/>
</clipPath>
</defs>
</svg>
