<svg width="48" height="48" viewBox="0 0 48 48" fill="none" xmlns="http://www.w3.org/2000/svg">
<path fill-rule="evenodd" clip-rule="evenodd" d="M18 36C8.05887 36 0 27.9411 0 18C0 8.05887 8.05887 0 18 0C27.9411 0 36 8.05887 36 18C36 22.6107 34.2664 26.8166 31.4155 30.0013L47.4142 46L46 47.4142L30.0013 31.4155C26.8166 34.2664 22.6107 36 18 36ZM18 34C26.8366 34 34 26.8366 34 18C34 9.16344 26.8366 2 18 2C9.16344 2 2 9.16344 2 18C2 26.8366 9.16344 34 18 34Z" fill="black"/>
<mask id="mask0_1230_395" style="mask-type:alpha" maskUnits="userSpaceOnUse" x="0" y="0" width="48" height="48">
<path fill-rule="evenodd" clip-rule="evenodd" d="M18 36C8.05887 36 0 27.9411 0 18C0 8.05887 8.05887 0 18 0C27.9411 0 36 8.05887 36 18C36 22.6107 34.2664 26.8166 31.4155 30.0013L47.4142 46L46 47.4142L30.0013 31.4155C26.8166 34.2664 22.6107 36 18 36ZM18 34C26.8366 34 34 26.8366 34 18C34 9.16344 26.8366 2 18 2C9.16344 2 2 9.16344 2 18C2 26.8366 9.16344 34 18 34Z" fill="white"/>
</mask>
<g mask="url(#mask0_1230_395)">
<rect width="48" height="48" fill="black"/>
</g>
</svg>
