<?xml version="1.0" encoding="utf-8"?>
<!-- Generator: Adobe Illustrator 23.0.1, SVG Export Plug-In . SVG Version: 6.00 Build 0)  -->
<svg version="1.1" id="Layer_1" xmlns="http://www.w3.org/2000/svg" xmlns:xlink="http://www.w3.org/1999/xlink" x="0px" y="0px"
	 viewBox="0 0 495.1 61.4" style="enable-background:new 0 0 495.1 61.4;" xml:space="preserve">
<style type="text/css">
	.st0{fill:#231F20;}
</style>
<title>TCo_Logo1_CMY100K</title>
<path class="st0" d="M63.1,53.7c0,2.3-0.3,4.1-1.4,5.1c-1,0.8-2.9,1-5.8,1c-0.2,0-0.2,0.8,0,0.8h22c0.2,0,0.2-0.8,0-0.8
	c-2.9,0-4.8-0.2-5.8-1c-1.2-1-1.4-2.8-1.4-5.1V20.7c0-2.3,0.3-4.1,1.4-5.1c1-0.8,2.9-1,5.8-1c0.2,0,0.2-0.8,0-0.8h-22
	c-0.2,0-0.2,0.8,0,0.8c2.9,0,4.8,0.2,5.8,1c1.2,1,1.4,2.8,1.4,5.1V53.7z"/>
<path class="st0" d="M48.5,1.1l0.1,15.3c0,0.2-0.7,0.3-0.7,0.1C44.1,7.1,41.3,2.4,29.6,2.4h-1.3v50.7c0,2.5,0.3,4.2,1.6,5.4
	c0.9,0.8,4.1,1.2,6.7,1.2c0.1,0,0.2,0.9,0,0.9H12.1c-0.2,0-0.1-0.9,0-0.9c2.6,0,5.8-0.4,6.7-1.2c1.3-1.2,1.5-2.9,1.5-5.4V2.4H19
	C7.3,2.4,4.5,7.1,0.7,16.5c0,0.1-0.8,0-0.7-0.1L0.1,1.1L48.5,1.1z"/>
<path class="st0" d="M120.7,13.8H86.7c-0.2,0-0.1,0.8,0,0.8c2.6,0,4.4,0.2,5.3,1c1.1,1,1.3,2.8,1.3,5.1v33c0,2.3-0.2,4.1-1.3,5.1
	c-0.9,0.8-2.7,1-5.3,1c-0.1,0-0.2,0.8,0,0.8h21.4c0.2,0,0.2-0.8,0-0.8c-2.9,0-4.8-0.2-5.8-1c-1.2-1-1.4-2.8-1.4-5.1V37.5h3.2
	c3.6,0,5.5,0.6,7,1.8c1.4,1.3,2.2,3.1,2.3,5c0,0.2,0.6,0.2,0.7,0V29.5c-0.2-0.2-0.7-0.2-0.7,0c0,1.9-0.8,3.7-2.3,5
	c-1.5,1.2-3.4,1.8-7,1.8h-3.3V15h4.4c10.6,0,13.3,5.1,14.9,10.9c0,0.1,0.6,0,0.6-0.1L120.7,13.8z"/>
<path class="st0" d="M161.2,13.8h-34c-0.2,0-0.1,0.8,0,0.8c2.6,0,4.4,0.2,5.3,1c1,1,1.3,2.8,1.3,5.1v33c0,2.3-0.2,4.1-1.3,5.1
	c-0.9,0.8-2.7,1-5.3,1c-0.1,0-0.2,0.8,0,0.8h21.4c0.2,0,0.1-0.8,0-0.8c-2.9,0-4.8-0.2-5.8-1c-1.2-1-1.4-2.8-1.4-5.1V37.5h3.3
	c3.6,0,5.5,0.6,7,1.8c1.4,1.3,2.2,3.1,2.3,5c0,0.2,0.6,0.2,0.8,0V29.5c-0.2-0.2-0.8-0.2-0.8,0c0,1.9-0.8,3.7-2.3,5
	c-1.5,1.2-3.4,1.8-7,1.8h-3.3V15h4.4c10.6,0,13.3,5.1,14.9,10.9c0,0.1,0.6,0,0.6-0.1L161.2,13.8z"/>
<path class="st0" d="M206.6,59.8c-3.8-0.4-4.8-1.7-6.5-6.1l-15.5-41.1c0-0.2-1.1-0.2-1.1,0l-15.2,40.2c-2.1,5.3-3.6,6-8.2,7
	c-0.1,0-0.2,0.8,0,0.8h13.9c0.1,0,0.1-0.8,0-0.8c-4-0.2-6-1.8-4-7l3.5-9.5h15l3.7,9.7c1.7,4.4,0,6.5-4.2,6.7c-0.1,0-0.2,0.8,0,0.8
	h18.5C206.8,60.6,206.8,59.8,206.6,59.8 M174,42.1l6.9-18.7l7.1,18.7H174z"/>
<path class="st0" d="M255.6,13.8h-15.8c-0.2,0-0.1,0.8,0,0.8c3.5,0.3,5.2,0.6,6.1,2.2c1,1.8,1.5,4.9,1.5,8.9v22.7L221,13.8H208
	c-0.2,0-0.1,0.8,0,0.8c4.9,0,7.3,2.8,7.3,6.8v27.2c0,4.1-0.3,7.1-1.3,8.9c-0.9,1.6-1.8,1.9-5.1,2.2c-0.1,0-0.1,0.8,0,0.8h15.6
	c0.2,0,0.1-0.8,0-0.8c-3.5-0.3-5.2-0.6-6.1-2.2c-1-1.8-1.5-4.9-1.5-8.9V20.9l31.1,40c0.3,0.4,1,0.3,1,0V25.8c0-4.1,0.2-7.1,1.3-8.9
	c0.9-1.6,1.8-1.9,5.3-2.2C255.7,14.6,255.7,13.8,255.6,13.8z"/>
<path class="st0" d="M302.4,13.8h-13.3c-0.2,0-0.1,0.8,0,0.8c4.2,0.1,5.7,1.7,4.2,4.8l-9.4,18l-10.2-18.3c-1.5-3,0.1-4.5,4.4-4.5
	c0.1,0,0.1-0.8,0-0.8H259c-0.2,0-0.1,0.8,0,0.8c3.8,0.3,4.8,1.2,6.3,4.1l11.7,21.4v13.5c0,2.3-0.2,4.1-1.3,5.1c-0.9,0.8-2.7,1-5.3,1
	c-0.1,0-0.1,0.8,0,0.8h20.8c0.2,0,0.1-0.8,0-0.8c-2.6,0-4.4-0.2-5.3-1c-1-1-1.3-2.8-1.3-5.1V38.7l10.5-19.4c1.8-3.5,3.4-4.4,7.2-4.7
	C302.5,14.6,302.6,13.8,302.4,13.8z"/>
<path class="st0" d="M461,13.1c13,0,23.4,10.7,23.4,24s-10.4,24-23.4,24s-23.4-10.7-23.4-24S448,13.1,461,13.1 M460.9,14.3
	c-9.5,0-14.4,9.7-14.4,22.9s4.9,22.9,14.4,22.9s14.4-9.7,14.4-22.9S470.5,14.3,460.9,14.3L460.9,14.3z"/>
<path class="st0" d="M430.5,43.2c0-0.2-0.6-0.3-0.7,0.1c-2.2,10.5-9.9,16.8-17,16.8c-13.6,0-22.3-12.2-22.3-29s7.6-29.3,21.2-29.3
	c7.6,0,15.5,5.8,17.8,16c0,0.1,0.8,0,0.7-0.1l-0.5-17.4c0-0.1-0.8-0.2-0.8,0c-0.3,2.6-1.9,4.1-4.6,3.1c-3.9-1.5-8.3-3-12.8-3
	c-16.9,0-31.2,13.8-31.2,30.7s14.3,30.4,31.2,30.4c7.1,0,13.2-1.6,18.2-5.1L430.5,43.2z"/>
<path class="st0" d="M490.5,51.9c2.6-0.1,4.7,2,4.8,4.6c0.1,2.6-2,4.7-4.6,4.8s-4.7-2-4.8-4.6c0,0,0-0.1,0-0.1
	C485.9,54.1,487.9,52,490.5,51.9C490.4,51.9,490.5,51.9,490.5,51.9z"/>
<path class="st0" d="M366.2,32.6h-18.7c-0.1,0-0.1,0.8,0,0.8c4.5,0,7.2,1.7,5.5,5.4c-1.3,2.8-2.9,5.4-4.7,7.8l-13.7-17.6
	c8-3.9,12.3-7.7,12.3-14c0-4.4-4.8-9.3-11.3-9.3c-6.9,0-12.9,5.8-12.9,12c0,4.1,1.1,6.9,5,12.8c-7.8,2.9-14.6,9.2-14.6,16.6
	c0,8.3,6.6,14.2,15.4,14.2c6.5,0,11.7-3.5,16.2-8.2l5.6,7.3h13.8c0.2,0,0.1-0.8,0-0.8c-2.6,0-3.3-0.2-4.8-1c-2.1-1.3-4-3-5.5-5.1
	l-4.5-5.8c2.6-3.5,5-7.1,7.3-10.3c1.7-2.4,3.6-3.6,9.8-4C366.4,33.5,366.5,32.7,366.2,32.6 M335.9,7.3c4.3,0,6.9,3.3,6.9,8.6
	c0,4.7-3.9,10-9.1,12c-3.9-5.6-4.7-9.1-4.7-12.3C329,9.6,331.6,7.4,335.9,7.3 M320.8,44.1c0-5.9,2.7-9.9,7.7-12.3l15.2,20.2
	c-3.6,3.3-7.5,5.5-11.2,5.5C326,57.4,320.8,52,320.8,44.1z"/>
</svg>
