<svg width="48" height="50" viewBox="0 0 48 50" fill="none" xmlns="http://www.w3.org/2000/svg">
<path d="M23.0718 13.8264C23.0718 13.8264 23.6959 14.5848 23.9997 15.0033C24.3041 14.5853 24.9293 13.8278 24.9293 13.8278L25.304 13.407C33.2462 4.78747 43.9994 11.8719 43.9994 22.3322C43.9994 33.3777 33.9996 43.9975 23.9997 48.9962C13.9897 43.991 4 33.3777 4 22.3322C4 11.8717 14.7661 4.77361 22.6978 13.4051L23.0718 13.8264Z" fill="#81D8D0" stroke="black"/>
<path d="M16 10H14C14 4.47715 18.4772 0 24 0C29.5228 0 34 4.47715 34 10H32C32 5.58172 28.4183 2 24 2C19.5817 2 16 5.58172 16 10Z" fill="black"/>
</svg>
