<svg width="512" height="512" viewBox="0 0 512 512" fill="none" xmlns="http://www.w3.org/2000/svg">
<path d="M486.11 140.588C480.578 120.024 464.365 103.814 443.804 98.2772C406.243 88 255.994 88 255.994 88C255.994 88 105.751 88 68.1895 97.888C48.0242 103.419 31.4162 120.028 25.885 140.588C16 178.146 16 256.039 16 256.039C16 256.039 16 334.323 25.885 371.489C31.4215 392.049 47.629 408.26 68.1925 413.796C106.146 424.076 256 424.076 256 424.076C256 424.076 406.243 424.076 443.804 414.188C464.368 408.654 480.578 392.444 486.115 371.884C495.997 334.322 495.997 256.433 495.997 256.433C495.997 256.433 496.392 178.145 486.11 140.588ZM208.157 327.998V184.078L333.097 256.037L208.157 327.998Z" fill="black"/>
</svg>
